<?xml version="1.0" encoding="UTF-8"?>
<svg width="144px" height="144px" viewBox="0 0 144 144" version="1.1" xmlns="http://www.w3.org/2000/svg" xmlns:xlink="http://www.w3.org/1999/xlink">
    <!-- Generator: Sketch 50.2 (55047) - http://www.bohemiancoding.com/sketch -->
    <title>android-chrome-150x150</title>
    <desc>Created with Sketch.</desc>
    <defs>
        <rect id="path-1" x="0" y="0" width="144" height="144"></rect>
    </defs>
    <g id="logo" stroke="none" stroke-width="1" fill="none" fill-rule="evenodd">
        <g id="Artboard-2" transform="translate(-978.000000, -640.000000)">
            <g id="android-chrome-150x150" transform="translate(978.000000, 640.000000)">
                <mask id="mask-2" fill="white">
                    <use xlink:href="#path-1"></use>
                </mask>
                <use id="Rectangle" fill="#6188F2" xlink:href="#path-1"></use>
                <ellipse id="Oval" fill="#FFFFFF" mask="url(#mask-2)" cx="71.1" cy="135.9" rx="87.3" ry="26.1"></ellipse>
                <g id="logo" transform="translate(33.000000, 31.500000)" fill="#FFFFFF">
                    <path d="M20.34,26.91 C32.1074921,35.1967613 47.8125079,35.1967613 59.58,26.91 L59.58,47.27952 C59.6920174,52.6172202 64.0511245,56.8858066 69.39,56.8858066 C74.7288755,56.8858066 79.0879826,52.6172202 79.2,47.27952 L79.2,13.40424 C79.2063053,9.76831306 77.7437671,6.2839775 75.14424,3.74184 C72.6555389,1.30281795 69.2856874,-0.0251885722 65.8021318,0.0602591804 C62.3185761,0.145706933 59.0178871,1.63733441 56.65176,4.19544 L50.08176,11.0088 C44.53344,16.15968 36.09648,15.9336 30.33864,11.0088 L23.22648,4.0968 C20.7837421,1.4898174 17.3728123,0.00737080641 13.80024,0 C6.50260807,0.0747764801 0.6468594,6.05043149 0.72,13.34808 L0.72,47.27952 C0.83201739,52.6172202 5.19112455,56.8858066 10.53,56.8858066 C15.8688755,56.8858066 20.2279826,52.6172202 20.34,47.27952 L20.34,26.91 Z" id="形状_1"></path>
                </g>
                <path d="M37.9795139,123.769097 L40.1427083,131.182292 L42.1114583,124.291667 C42.3221075,123.570598 42.4780666,123.078416 42.5793403,122.815104 C42.6806139,122.551793 42.8710055,122.300638 43.1505208,122.061632 C43.4300361,121.822626 43.8128448,121.703125 44.2989583,121.703125 C44.7931738,121.703125 45.1800333,121.822626 45.4595486,122.061632 C45.7390639,122.300638 45.9355318,122.559894 46.0489583,122.83941 C46.1623848,123.118925 46.3203694,123.603006 46.5229167,124.291667 L48.4916667,131.182292 L50.6791667,123.769097 C50.8250007,123.234372 50.9424764,122.847513 51.0315972,122.608507 C51.120718,122.369501 51.2706008,122.158855 51.48125,121.976562 C51.6918992,121.79427 51.9957156,121.703125 52.3927083,121.703125 C52.7897011,121.703125 53.1340263,121.840855 53.4256944,122.116319 C53.7173626,122.391784 53.8631944,122.715855 53.8631944,123.088542 C53.8631944,123.428821 53.737617,123.943284 53.4864583,124.631944 L50.7763889,132.579861 C50.541434,133.252318 50.3591442,133.738424 50.2295139,134.038194 C50.0998836,134.337964 49.8953139,134.605323 49.6157986,134.840278 C49.3362833,135.075233 48.9534747,135.192708 48.4673611,135.192708 C47.9650438,135.192708 47.5700825,135.067131 47.2824653,134.815972 C46.9948481,134.564814 46.7821766,134.256946 46.6444444,133.892361 C46.5067123,133.527776 46.3568295,133.053822 46.1947917,132.470486 L44.2989583,126.005208 L42.4638889,132.470486 C42.2208321,133.369796 41.9575246,134.048319 41.6739583,134.506076 C41.3903921,134.963833 40.8921332,135.192708 40.1791667,135.192708 C39.8145815,135.192708 39.5046888,135.121818 39.2494792,134.980035 C38.9942696,134.838252 38.7815981,134.635707 38.6114583,134.372396 C38.4413186,134.109084 38.2914358,133.797166 38.1618056,133.436632 C38.0321753,133.076098 37.9309031,132.79051 37.8579861,132.579861 L35.1722222,124.631944 C34.9048598,123.88657 34.7711806,123.372108 34.7711806,123.088542 C34.7711806,122.732058 34.9129615,122.412038 35.1965278,122.128472 C35.480094,121.844906 35.8284702,121.703125 36.2416667,121.703125 C36.7925953,121.703125 37.1652768,121.859084 37.3597222,122.171007 C37.5541676,122.48293 37.7607628,123.015621 37.9795139,123.769097 Z M64.2052083,133.321181 C63.403121,133.945026 62.6273764,134.412904 61.8779514,134.724826 C61.1285263,135.036749 60.2879676,135.192708 59.35625,135.192708 C58.5055513,135.192708 57.7581629,135.024597 57.1140625,134.688368 C56.4699621,134.35214 55.9737286,133.896415 55.6253472,133.321181 C55.2769659,132.745946 55.1027778,132.12211 55.1027778,131.449653 C55.1027778,130.542241 55.3903906,129.768522 55.965625,129.128472 C56.5408594,128.488423 57.330782,128.059029 58.3354167,127.840278 C58.5460659,127.791666 59.0686301,127.682293 59.903125,127.512153 C60.7376199,127.342013 61.4526012,127.186054 62.0480903,127.044271 C62.6435794,126.902488 63.2896956,126.730325 63.9864583,126.527778 C63.9459489,125.652773 63.7697354,125.010708 63.4578125,124.601562 C63.1458896,124.192417 62.4997734,123.987847 61.5194444,123.987847 C60.6768476,123.987847 60.0428841,124.105323 59.6175347,124.340278 C59.1921854,124.575233 58.8276057,124.92766 58.5237847,125.397569 C58.2199638,125.867479 58.0052668,126.177372 57.8796875,126.327257 C57.7541082,126.477142 57.4847243,126.552083 57.0715278,126.552083 C56.6988407,126.552083 56.3767953,126.432582 56.1053819,126.193576 C55.8339686,125.954571 55.6982639,125.648729 55.6982639,125.276042 C55.6982639,124.692705 55.904859,124.125581 56.3180556,123.574653 C56.7312521,123.023724 57.3753428,122.570025 58.2503472,122.213542 C59.1253516,121.857058 60.2150398,121.678819 61.5194444,121.678819 C62.9777851,121.678819 64.1241856,121.850982 64.9586806,122.195312 C65.7931755,122.539643 66.3825793,123.084487 66.7269097,123.829861 C67.0712401,124.575235 67.2434028,125.563651 67.2434028,126.795139 C67.2434028,127.572921 67.2413773,128.233215 67.2373264,128.776042 C67.2332754,129.318868 67.2271991,129.92245 67.2190972,130.586806 C67.2190972,131.210651 67.3223948,131.860818 67.5289931,132.537326 C67.7355913,133.213834 67.8388889,133.649305 67.8388889,133.84375 C67.8388889,134.184029 67.6788789,134.493922 67.3588542,134.773437 C67.0388294,135.052953 66.6762752,135.192708 66.2711806,135.192708 C65.9309011,135.192708 65.5946776,135.032698 65.2625,134.712674 C64.9303224,134.392649 64.5778954,133.928822 64.2052083,133.321181 Z M63.9864583,128.520833 C63.5003448,128.699075 62.7934653,128.887441 61.8657986,129.085937 C60.9381319,129.284434 60.2960666,129.430266 59.9395833,129.523437 C59.5831001,129.616609 59.2428257,129.798899 58.91875,130.070312 C58.5946743,130.341726 58.4326389,130.720484 58.4326389,131.206597 C58.4326389,131.708915 58.6230305,132.136283 59.0038194,132.488715 C59.3846084,132.841148 59.8828673,133.017361 60.4986111,133.017361 C61.1548644,133.017361 61.7604718,132.873555 62.3154514,132.585937 C62.870431,132.29832 63.277545,131.927664 63.5368056,131.473958 C63.8365756,130.971641 63.9864583,130.14526 63.9864583,128.994792 L63.9864583,128.520833 Z M70.6097222,133.175347 L70.6097222,118.786458 C70.6097222,118.122103 70.7575795,117.619793 71.0532986,117.279514 C71.3490177,116.939234 71.7480299,116.769097 72.2503472,116.769097 C72.7526645,116.769097 73.1577531,116.937209 73.465625,117.273437 C73.7734969,117.609666 73.9274306,118.114001 73.9274306,118.786458 L73.9274306,133.175347 C73.9274306,133.847804 73.7714715,134.35214 73.4595486,134.688368 C73.1476258,135.024597 72.7445627,135.192708 72.2503472,135.192708 C71.7642337,135.192708 71.3692724,135.01852 71.0654514,134.670139 C70.7616304,134.321758 70.6097222,133.823499 70.6097222,133.175347 Z M77.3545139,133.175347 L77.3545139,118.786458 C77.3545139,118.122103 77.5023712,117.619793 77.7980903,117.279514 C78.0938093,116.939234 78.4928216,116.769097 78.9951389,116.769097 C79.4974562,116.769097 79.9025448,116.937209 80.2104167,117.273437 C80.5182886,117.609666 80.6722222,118.114001 80.6722222,118.786458 L80.6722222,133.175347 C80.6722222,133.847804 80.5162631,134.35214 80.2043403,134.688368 C79.8924174,135.024597 79.4893543,135.192708 78.9951389,135.192708 C78.5090253,135.192708 78.114064,135.01852 77.8102431,134.670139 C77.5064221,134.321758 77.3545139,133.823499 77.3545139,133.175347 Z M93.3597222,129.262153 L86.8701389,129.262153 C86.8782408,130.015629 87.030149,130.679974 87.3258681,131.255208 C87.6215871,131.830443 88.014523,132.263887 88.5046875,132.555556 C88.994852,132.847224 89.5356452,132.993056 90.1270833,132.993056 C90.5240761,132.993056 90.8866303,132.94647 91.2147569,132.853299 C91.5428836,132.760127 91.8608781,132.614295 92.16875,132.415799 C92.4766219,132.217302 92.7601839,132.004631 93.0194444,131.777778 C93.278705,131.550925 93.6149285,131.243057 94.028125,130.854167 C94.1982647,130.708333 94.4413179,130.635417 94.7572917,130.635417 C95.0975711,130.635417 95.3730314,130.728587 95.5836806,130.914931 C95.7943298,131.101274 95.8996528,131.364582 95.8996528,131.704861 C95.8996528,132.004631 95.7821771,132.355033 95.5472222,132.756076 C95.3122673,133.15712 94.9578149,133.541954 94.4838542,133.91059 C94.0098935,134.279226 93.4144133,134.585068 92.6973958,134.828125 C91.9803784,135.071182 91.1560232,135.192708 90.2243056,135.192708 C88.0935079,135.192708 86.4366957,134.585076 85.2538194,133.369792 C84.0709432,132.154508 83.4795139,130.505797 83.4795139,128.423611 C83.4795139,127.443282 83.6253458,126.533858 83.9170139,125.695312 C84.208682,124.856767 84.634025,124.137734 85.1930556,123.538194 C85.7520861,122.938654 86.4407366,122.478879 87.2590278,122.158854 C88.0773189,121.838829 88.9847172,121.678819 89.98125,121.678819 C91.2775528,121.678819 92.3895208,121.952254 93.3171875,122.499132 C94.2448542,123.04601 94.939581,123.752889 95.4013889,124.619792 C95.8631968,125.486694 96.0940972,126.369787 96.0940972,127.269097 C96.0940972,128.103592 95.855095,128.644385 95.3770833,128.891493 C94.8990717,129.138601 94.2266247,129.262153 93.3597222,129.262153 Z M86.8701389,127.378472 L92.8857639,127.378472 C92.804745,126.244207 92.4989031,125.395547 91.9682292,124.832465 C91.4375552,124.269384 90.7387775,123.987847 89.871875,123.987847 C89.045482,123.987847 88.3669587,124.273435 87.8362847,124.844618 C87.3056108,125.415801 86.9835654,126.260411 86.8701389,127.378472 Z M99.0715278,121.994792 L99.4361111,121.994792 L99.4361111,120.001736 C99.4361111,119.467011 99.4502892,119.047745 99.4786458,118.743924 C99.5070025,118.440103 99.5859947,118.178821 99.715625,117.960069 C99.8452553,117.733216 100.031596,117.548901 100.274653,117.407118 C100.51771,117.265335 100.789119,117.194444 101.088889,117.194444 C101.510187,117.194444 101.890971,117.352429 102.23125,117.668403 C102.458103,117.879052 102.601909,118.136283 102.662674,118.440104 C102.723438,118.743925 102.753819,119.175344 102.753819,119.734375 L102.753819,121.994792 L103.969097,121.994792 C104.439007,121.994792 104.79751,122.106191 105.044618,122.328993 C105.291726,122.551795 105.415278,122.837383 105.415278,123.185764 C105.415278,123.631368 105.239064,123.943286 104.886632,124.121528 C104.5342,124.299769 104.029864,124.388889 103.373611,124.388889 L102.753819,124.388889 L102.753819,130.489583 C102.753819,131.008104 102.772048,131.407117 102.808507,131.686632 C102.844965,131.966147 102.942187,132.192997 103.100174,132.367187 C103.258161,132.541378 103.515392,132.628472 103.871875,132.628472 C104.06632,132.628472 104.329628,132.59404 104.661806,132.525174 C104.993983,132.456308 105.25324,132.421875 105.439583,132.421875 C105.706946,132.421875 105.947973,132.529223 106.162674,132.743924 C106.377374,132.958624 106.484722,133.223957 106.484722,133.539931 C106.484722,134.074655 106.193058,134.483795 105.609722,134.767361 C105.026386,135.050927 104.187853,135.192708 103.094097,135.192708 C102.057055,135.192708 101.271183,135.01852 100.736458,134.670139 C100.201733,134.321758 99.8513318,133.839702 99.6852431,133.223958 C99.5191543,132.608215 99.4361111,131.785885 99.4361111,130.756944 L99.4361111,124.388889 L98.9986111,124.388889 C98.5205995,124.388889 98.1560198,124.275464 97.9048611,124.048611 C97.6537024,123.821758 97.528125,123.534145 97.528125,123.185764 C97.528125,122.837383 97.6597788,122.551795 97.9230903,122.328993 C98.1864018,122.106191 98.5692105,121.994792 99.0715278,121.994792 Z" id="wallet" fill="#5F5F5F"></path>
            </g>
        </g>
    </g>
</svg>